# xmcd CD database file generated by Grip 3.3.1
# 
# Track frame offsets:
#       150
#       17661
#       30798
#       43296
#       66260
#       84927
#       98757
#       116621
#       134135
#       151164
#       194129
#       208352
#       234865
# 
# Disc length: 3454 seconds
# 
# Revision: 2
# Processed by: cddbd v1.5.2PL0 Copyright (c) Steve Scherf et al.
# Submitted via: Grip 3.3.1
# 
DISCID=af0d7c0d
DTITLE=Various Artist - Beginner's Guide To The Blues: Keepin' The Tradition Al
DTITLE=ive
DYEAR=2005
DGENRE=Blues
TTITLE0=R.L. Burnside - Rollin' And Tumblin'
TTITLE1=Corey Harris - Keep Your Lamps Trimmed And Burning
TTITLE2=The Black Keys - Set You Free
TTITLE3=Tai Mahal and Toumani Diabate - Queen Bee
TTITLE4=Robert Cray - Smoking Gun
TTITLE5=Rory Block - If I Had Possession Over Judgement Day
TTITLE6=Mem Shannon - Mr Blues
TTITLE7=Clarence "Gatemouth" Brown - Born In Louisiana
TTITLE8=Shemikia Copeland - The Push I Need
TTITLE9=Kelly Joe Phelps - Hard Time Killin' Floor Blues
TTITLE10=Albert Collins - Ice Pick
TTITLE11=Walter "Wolfman" Washington - Out Of The Dark
TTITLE12=Charlie Musselwhite - Blues Got Me Again
EXTD=YEAR: 2005
EXTT0=
EXTT1=
EXTT2=
EXTT3=
EXTT4=
EXTT5=
EXTT6=
EXTT7=
EXTT8=
EXTT9=
EXTT10=
EXTT11=
EXTT12=
PLAYORDER=
